:FULLY-SPECIFIED
:FORCE-ALL-JOINTS-BE-3DOF
:DEGREES
3160
root 0.977263 16.9339 -33.3555 6.05996 5.19341 -3.7665
lfemur -18.6032 -2.46799 -8.23935
ltibia 35.2512 -0 0
lfoot -16.3857 7.68731 -0.00105708
ltoes -40.6596 0 0
rfemur -19.3899 -0.193034 18.4959
rtibia 38.9704 -0 0
rfoot -12.1453 -21.0515 -0.000751948
rtoes -16.3968 0 0
lowerback 5.77438 1.52785 -0.53291
upperback -4.09258 2.13443 1.85273
thorax -7.62729 1.13358 1.98199
lowerneck -5.42344 -5.1435 -7.88592
upperneck 9.38312 -6.79649 5.98376
head 4.16001 -3.34037 2.72968
lclavicle 7.71844e-16 -2.33572e-15 0
lhumerus -33.4179 -18.2783 94.771
lradius 51.2879 -0 0
lwrist -9.04172 0 0
lhand -34.1009 29.4087 -0.00194482
lfingers 7.12502 -0 0
lthumb -7.27698 59.263 -0.00190838
rclavicle 7.71844e-16 -2.33572e-15 0
rhumerus -35.5466 13.9404 -81.3481
rradius 50.2854 -0 0
rwrist 1.72826 0 0
rhand -29.2386 -34.138 0.000375843
rfingers 7.12502 -0 0
rthumb -2.58209 -64.1012 0.000352809
3161
root 0.992457 16.9401 -33.3493 6.05538 5.12862 -3.79948
lfemur -18.5308 -2.48599 -8.24547
ltibia 35.2001 -0 0
lfoot -16.3675 7.7671 -0.00156848
ltoes -40.6344 0 0
rfemur -19.3186 -0.156939 18.4969
rtibia 38.8502 -0 0
rfoot -12.1079 -21.0152 -0.0011169
rtoes -16.3922 0 0
lowerback 5.7444 1.5373 -0.542634
upperback -4.11299 2.14651 1.85292
thorax -7.63266 1.14023 1.98657
lowerneck -5.46506 -5.13665 -7.87575
upperneck 9.48468 -6.78874 5.98252
head 4.19469 -3.33563 2.72327
lclavicle 7.71844e-16 -2.33572e-15 0
lhumerus -33.4142 -18.0289 94.6705
lradius 50.8311 -0 0
lwrist -9.2103 0 0
lhand -34.1283 29.3825 -0.00286682
lfingers 7.12502 -0 0
lthumb -7.30344 59.2361 -0.00281327
rclavicle 7.71844e-16 -2.33572e-15 0
rhumerus -35.5494 13.6517 -81.2979
rradius 49.6851 -0 0
rwrist 1.9038 0 0
rhand -29.179 -34.1481 0.000656664
rfingers 7.12502 -0 0
rthumb -2.52461 -64.1113 0.000617971
3162
root 1.0064 16.9459 -33.3434 6.05109 5.06171 -3.83213
lfemur -18.4577 -2.50255 -8.25195
ltibia 35.1492 -0 0
lfoot -16.3496 7.84747 -0.00206833
ltoes -40.6079 0 0
rfemur -19.2482 -0.120946 18.4977
rtibia 38.7313 -0 0
rfoot -12.0712 -20.9781 -0.00147528
rtoes -16.3875 0 0
lowerback 5.71483 1.54701 -0.552294
upperback -4.13366 2.15897 1.85323
thorax -7.63857 1.14706 1.99119
lowerneck -5.5061 -5.12908 -7.86529
upperneck 9.58632 -6.78011 5.98118
head 4.22936 -3.33045 2.71704
lclavicle 7.71844e-16 -2.33572e-15 0
lhumerus -33.4052 -17.7753 94.5686
lradius 50.359 -0 0
lwrist -9.38598 0 0
lhand -34.1546 29.3602 -0.00375022
lfingers 7.12502 -0 0
lthumb -7.32877 59.2131 -0.0036804
rclavicle 7.71844e-16 -2.33572e-15 0
rhumerus -35.5512 13.3591 -81.2468
rradius 49.0801 -0 0
rwrist 2.07469 0 0
rhand -29.1126 -34.1559 0.000994486
rfingers 7.12502 -0 0
rthumb -2.46042 -64.1192 0.00093766
3163
root 1.01913 16.9511 -33.338 6.04709 4.9929 -3.86439
lfemur -18.3841 -2.5177 -8.25875
ltibia 35.0984 -0 0
lfoot -16.3321 7.92825 -0.00255628
ltoes -40.58 0 0
rfemur -19.1789 -0.085122 18.4984
rtibia 38.6137 -0 0
rfoot -12.0353 -20.9403 -0.00182739
rtoes -16.3826 0 0
lowerback 5.6857 1.55696 -0.561875
upperback -4.15454 2.17176 1.85363
thorax -7.64499 1.15406 1.99582
lowerneck -5.54647 -5.12082 -7.85459
upperneck 9.68784 -6.77065 5.97974
head 4.26394 -3.32486 2.71101
lclavicle 7.71844e-16 -2.33572e-15 0
lhumerus -33.391 -17.5183 94.4655
lradius 49.8731 -0 0
lwrist -9.56817 0 0
lhand -34.1796 29.3417 -0.00459164
lfingers 7.12502 -0 0
lthumb -7.35296 59.1939 -0.00450648
rclavicle 7.71844e-16 -2.33572e-15 0
rhumerus -35.552 13.0633 -81.195
rradius 48.4717 -0 0
rwrist 2.24076 0 0
rhand -29.0396 -34.1615 0.00138458
rfingers 7.12502 -0 0
rthumb -2.38989 -64.1249 0.0013074
3164
root 1.03072 16.956 -33.333 6.04339 4.92239 -3.8962
lfemur -18.31 -2.53144 -8.26585
ltibia 35.048 -0 0
lfoot -16.3151 8.00924 -0.00303183
ltoes -40.551 0 0
rfemur -19.1107 -0.0495349 18.4991
rtibia 38.4977 -0 0
rfoot -12.0004 -20.9018 -0.00217333
rtoes -16.3776 0 0
lowerback 5.65708 1.5671 -0.571359
upperback -4.17558 2.18484 1.85414
thorax -7.6519 1.1612 2.00046
lowerneck -5.58613 -5.11192 -7.84367
upperneck 9.78903 -6.76039 5.97822
head 4.29837 -3.31889 2.70517
lclavicle 7.71844e-16 -2.33572e-15 0
lhumerus -33.3719 -17.2583 94.3615
lradius 49.3748 -0 0
lwrist -9.75627 0 0
lhand -34.2035 29.327 -0.00538802
lfingers 7.12502 -0 0
lthumb -7.37601 59.1784 -0.0052885
rclavicle 7.71844e-16 -2.33572e-15 0
rhumerus -35.5519 12.765 -81.1424
rradius 47.8613 -0 0
rwrist 2.40182 0 0
rhand -28.9603 -34.1649 0.00182154
rfingers 7.12502 -0 0
rthumb -2.31335 -64.1286 0.00172207
3165
root 1.0412 16.9604 -33.3284 6.03998 4.85038 -3.92752
lfemur -18.2357 -2.54378 -8.27323
ltibia 34.9981 -0 0
lfoot -16.2984 8.09028 -0.00349426
ltoes -40.5209 0 0
rfemur -19.0439 -0.0142527 18.4996
rtibia 38.3835 -0 0
rfoot -11.9663 -20.8627 -0.00251294
rtoes -16.3725 0 0
lowerback 5.629 1.57743 -0.580729
upperback -4.19673 2.19819 1.85474
thorax -7.65926 1.16848 2.0051
lowerneck -5.62502 -5.10242 -7.83257
upperneck 9.88969 -6.7494 5.97662
head 4.33257 -3.31256 2.69953
lclavicle 7.71844e-16 -2.33572e-15 0
lhumerus -33.3481 -16.9961 94.257
lradius 48.8655 -0 0
lwrist -9.94971 0 0
lhand -34.2262 29.3158 -0.00613658
lfingers 7.12502 -0 0
lthumb -7.3979 59.1666 -0.00602375
rclavicle 7.71844e-16 -2.33572e-15 0
rhumerus -35.5509 12.4648 -81.0894
rradius 47.2502 -0 0
rwrist 2.5577 0 0
rhand -28.8752 -34.1663 0.00229935
rfingers 7.12502 -0 0
rthumb -2.23118 -64.1302 0.00217596
3166
root 1.05065 16.9644 -33.3241 6.03687 4.77708 -3.95828
lfemur -18.1613 -2.55475 -8.28086
ltibia 34.9486 -0 0
lfoot -16.2823 8.17118 -0.00394273
ltoes -40.4899 0 0
rfemur -18.9784 0.0206567 18.5
rtibia 38.2712 -0 0
rfoot -11.9332 -20.8233 -0.00284587
rtoes -16.3673 0 0
lowerback 5.6015 1.58789 -0.589969
upperback -4.21794 2.21176 1.85544
thorax -7.66703 1.17587 2.00972
lowerneck -5.66306 -5.09235 -7.8213
upperneck 9.98961 -6.73771 5.97496
head 4.36648 -3.30589 2.69411
lclavicle 7.71844e-16 -2.33572e-15 0
lhumerus -33.3199 -16.7323 94.1522
lradius 48.3468 -0 0
lwrist -10.1479 0 0
lhand -34.2476 29.3082 -0.00683486
lfingers 7.12502 -0 0
lthumb -7.41862 59.1584 -0.0067098
rclavicle 7.71844e-16 -2.33572e-15 0
rhumerus -35.549 12.1636 -81.0361
rradius 46.6399 -0 0
rwrist 2.70821 0 0
rhand -28.7847 -34.1657 0.00281151
rfingers 7.12502 -0 0
rthumb -2.14371 -64.1298 0.00266289
3167
root 1.0591 16.9681 -33.3201 6.03405 4.7027 -3.98844
lfemur -18.0871 -2.56436 -8.28871
ltibia 34.8998 -0 0
lfoot -16.2667 8.25176 -0.0043762
ltoes -40.4579 0 0
rfemur -18.9144 0.0551253 18.5003
rtibia 38.1611 -0 0
rfoot -11.9011 -20.7835 -0.00317158
rtoes -16.362 0 0
lowerback 5.57463 1.59848 -0.59906
upperback -4.23917 2.22552 1.85622
thorax -7.6752 1.18335 2.01432
lowerneck -5.7002 -5.08176 -7.80992
upperneck 10.0886 -6.72537 5.97323
head 4.40003 -3.29892 2.6889
lclavicle 7.71844e-16 -2.33572e-15 0
lhumerus -33.2875 -16.4675 94.0473
lradius 47.82 -0 0
lwrist -10.3502 0 0
lhand -34.2679 29.304 -0.00748067
lfingers 7.12502 -0 0
lthumb -7.43815 59.1537 -0.0073445
rclavicle 7.71844e-16 -2.33572e-15 0
rhumerus -35.5463 11.862 -80.9825
rradius 46.0317 -0 0
rwrist 2.85316 0 0
rhand -28.689 -34.1632 0.00335113
rfingers 7.12502 -0 0
rthumb -2.05132 -64.1274 0.00317632
3168
root 1.06661 16.9714 -33.3164 6.03152 4.62743 -4.01795
lfemur -18.0131 -2.57262 -8.29675
ltibia 34.8516 -0 0
lfoot -16.2515 8.33185 -0.00479347
ltoes -40.4252 0 0
rfemur -18.8521 0.0890851 18.5006
rtibia 38.0534 -0 0
rfoot -11.8701 -20.7434 -0.0034893
rtoes -16.3567 0 0
lowerback 5.54844 1.60916 -0.607987
upperback -4.26035 2.23942 1.85708
thorax -7.68373 1.1909 2.01889
lowerneck -5.73637 -5.07069 -7.79843
upperneck 10.1864 -6.71242 5.97145
head 4.43315 -3.29166 2.68392
lclavicle 7.71844e-16 -2.33572e-15 0
lhumerus -33.2511 -16.2023 93.9428
lradius 47.2866 -0 0
lwrist -10.5561 0 0
lhand -34.2869 29.3032 -0.00807209
lfingers 7.12502 -0 0
lthumb -7.45649 59.1523 -0.00792597
rclavicle 7.71844e-16 -2.33572e-15 0
rhumerus -35.5429 11.5607 -80.9288
rradius 45.4268 -0 0
rwrist 2.99237 0 0
rhand -28.5886 -34.1587 0.00391101
rfingers 7.12502 -0 0
rthumb -1.95434 -64.1233 0.00370937
3169
root 1.07324 16.9743 -33.313 6.02929 4.55148 -4.04675
lfemur -17.9396 -2.57955 -8.30496
ltibia 34.8043 -0 0
lfoot -16.2369 8.41126 -0.00519323
ltoes -40.3917 0 0
rfemur -18.7915 0.122468 18.5007
rtibia 37.9482 -0 0
rfoot -11.8401 -20.7032 -0.00379809
rtoes -16.3513 0 0
lowerback 5.52298 1.61991 -0.616732
upperback -4.28145 2.25344 1.85801
thorax -7.6926 1.1985 2.02341
lowerneck -5.77153 -5.05917 -7.78689
upperneck 10.2829 -6.69893 5.96963
head 4.46578 -3.28414 2.67917
lclavicle 7.71844e-16 -2.33572e-15 0
lhumerus -33.2109 -15.9374 93.8389
lradius 46.7481 -0 0
lwrist -10.765 0 0
lhand -34.3046 29.3057 -0.00860751
lfingers 7.12502 -0 0
lthumb -7.47361 59.1543 -0.0084526
rclavicle 7.71844e-16 -2.33572e-15 0
rhumerus -35.5387 11.2605 -80.8752
rradius 44.8268 -0 0
rwrist 3.12567 0 0
rhand -28.4838 -34.1525 0.00448375
rfingers 7.12502 -0 0
rthumb -1.85313 -64.1172 0.00425501
3170
root 1.07903 16.9769 -33.3099 6.02734 4.47506 -4.07478
lfemur -17.8667 -2.58517 -8.31332
ltibia 34.7578 -0 0
lfoot -16.2229 8.48981 -0.005574
ltoes -40.3577 0 0
rfemur -18.7326 0.155207 18.5008
rtibia 37.8458 -0 0
rfoot -11.8114 -20.663 -0.00409683
rtoes -16.3458 0 0
lowerback 5.49827 1.63069 -0.625278
upperback -4.30241 2.26753 1.85902
thorax -7.70176 1.20612 2.02788
lowerneck -5.80559 -5.04724 -7.7753
upperneck 10.3778 -6.68492 5.96776
head 4.49784 -3.27638 2.67465
lclavicle 7.71844e-16 -2.33572e-15 0
lhumerus -33.1671 -15.6734 93.7358
lradius 46.206 -0 0
lwrist -10.9762 0 0
lhand -34.3211 29.3113 -0.00908555
lfingers 7.12502 -0 0
lthumb -7.48952 59.1595 -0.00892304
rclavicle 7.71844e-16 -2.33572e-15 0
rhumerus -35.5338 10.9621 -80.8218
rradius 44.233 -0 0
rwrist 3.25286 0 0
rhand -28.375 -34.1444 0.00506178
rfingers 7.12502 -0 0
rthumb -1.74805 -64.1095 0.00480602
3171
root 1.08404 16.9792 -33.307 6.02568 4.39837 -4.102
lfemur -17.7946 -2.58948 -8.32178
ltibia 34.7124 -0 0
lfoot -16.2094 8.56734 -0.00593418
ltoes -40.3233 0 0
rfemur -18.6758 0.187232 18.5007
rtibia 37.7463 -0 0
rfoot -11.7838 -20.6229 -0.0043842
rtoes -16.3404 0 0
lowerback 5.47439 1.64147 -0.633607
upperback -4.32318 2.28166 1.8601
thorax -7.71119 1.21376 2.03229
lowerneck -5.83851 -5.03494 -7.76372
upperneck 10.471 -6.67045 5.96587
head 4.52927 -3.26842 2.67037
lclavicle 7.71844e-16 -2.33572e-15 0
lhumerus -33.12 -15.411 93.6338
lradius 45.6616 -0 0
lwrist -11.1892 0 0
lhand -34.3363 29.3201 -0.00950513
lfingers 7.12502 -0 0
lthumb -7.50419 59.1678 -0.00933622
rclavicle 7.71844e-16 -2.33572e-15 0
rhumerus -35.5282 10.6662 -80.7687
rradius 43.6467 -0 0
rwrist 3.37377 0 0
rhand -28.2626 -34.1347 0.00563751
rfingers 7.12502 -0 0
rthumb -1.63946 -64.1 0.00535515
3172
root 1.08832 16.9812 -33.3043 6.02431 4.32162 -4.12835
lfemur -17.7234 -2.59251 -8.33034
ltibia 34.6681 -0 0
lfoot -16.1966 8.64365 -0.00627207
ltoes -40.2884 0 0
rfemur -18.6209 0.218477 18.5006
rtibia 37.65 -0 0
rfoot -11.7574 -20.5829 -0.00465875
rtoes -16.3349 0 0
lowerback 5.45135 1.65224 -0.641704
upperback -4.34371 2.29579 1.86125
thorax -7.72087 1.22139 2.03662
lowerneck -5.87021 -5.02232 -7.75216
upperneck 10.5622 -6.65557 5.96395
head 4.56 -3.26028 2.66634
lclavicle 7.71844e-16 -2.33572e-15 0
lhumerus -33.0696 -15.1508 93.5331
lradius 45.1165 -0 0
lwrist -11.4035 0 0
lhand -34.3502 29.3318 -0.00986541
lfingers 7.12502 -0 0
lthumb -7.51762 59.1792 -0.00969129
rclavicle 7.71844e-16 -2.33572e-15 0
rhumerus -35.5221 10.3734 -80.7161
rradius 43.0693 -0 0
rwrist 3.48821 0 0
rhand -28.1469 -34.1233 0.00620335
rfingers 7.12502 -0 0
rthumb -1.5277 -64.089 0.00589518
